<?xml version="1.0" encoding="iso-8859-1"?>
<!-- Generator: Adobe Illustrator 19.0.0, SVG Export Plug-In . SVG Version: 6.00 Build 0)  -->
<svg xmlns="http://www.w3.org/2000/svg" xmlns:xlink="http://www.w3.org/1999/xlink" version="1.1" id="Capa_1" x="0px" y="0px" viewBox="0 0 480.006 480.006" style="enable-background:new 0 0 480.006 480.006;" xml:space="preserve" width="512px" height="512px">
<g>
	<g>
		<path d="M472.006,0.003h-160c-0.096,0-0.176,0.048-0.272,0.056c-0.92,0.032-1.824,0.2-2.688,0.544    c-0.16,0.064-0.288,0.152-0.44,0.224c-0.368,0.176-0.744,0.32-1.08,0.552c-0.336,0.224-0.6,0.512-0.896,0.784    c-0.12,0.112-0.256,0.2-0.368,0.32c-0.624,0.648-1.112,1.392-1.488,2.2c-0.08,0.176-0.136,0.352-0.208,0.536    c-0.328,0.88-0.56,1.808-0.56,2.784v464c0,0.976,0.232,1.904,0.56,2.784c0.072,0.184,0.128,0.36,0.208,0.536    c0.376,0.808,0.864,1.552,1.488,2.2c0.112,0.12,0.248,0.208,0.368,0.32c0.288,0.272,0.56,0.552,0.896,0.784    c0.28,0.192,0.608,0.28,0.904,0.432c0.264,0.136,0.512,0.272,0.8,0.384c0.896,0.336,1.824,0.56,2.776,0.56h160    c4.416,0,8-3.584,8-8v-464C480.006,3.587,476.422,0.003,472.006,0.003z M320.006,19.819l104,41.6v357.168l-104,41.6V19.819z     M464.006,464.003H353.55l81.424-32.568c3.04-1.224,5.032-4.16,5.032-7.432v-368c0-3.272-1.992-6.208-5.024-7.432L353.55,16.003    h110.456V464.003z" fill="#3a7510"/>
	</g>
</g>
<g>
	<g>
		<rect x="392.006" y="224.003" width="16" height="32" fill="#3a7510"/>
	</g>
</g>
<g>
	<g>
		<path d="M272.006,112.003h-112c-4.416,0-8,3.584-8,8v16.208c-5.08-3.848-11.048-6.488-17.592-7.56    c10.8-10.216,17.592-24.64,17.592-40.648c0-30.88-25.12-56-56-56s-56,25.12-56,56c0,16.864,7.52,31.968,19.352,42.248    c-15.84,5.32-27.352,20.144-27.352,37.752v190.704L0.414,453.475c-1.4,4.192,0.864,8.72,5.056,10.12l48,16    c0.848,0.272,1.696,0.408,2.536,0.408c3.056,0,5.952-1.768,7.28-4.688l40-88c0.352-0.768,0.576-1.584,0.664-2.424l4.736-42.64    l19.616,44.128l15.832,87.056c0.696,3.8,4.008,6.568,7.872,6.568h56c2.368,0,4.624-1.056,6.144-2.872    c1.52-1.816,2.16-4.224,1.728-6.552l-16-88c-0.096-0.528-0.248-1.04-0.44-1.544l-31.432-78.568v-22.464h48    c13.232,0,24-10.768,24-24v-16h32c4.416,0,8-3.584,8-8v-112C280.006,115.587,276.422,112.003,272.006,112.003z M56.006,88.003    c0-22.056,17.944-40,40-40c22.056,0,40,17.944,40,40c0,22.056-17.944,40-40,40C73.95,128.003,56.006,110.059,56.006,88.003z     M184.278,386.227l14.144,77.776h-39.736l-14.808-81.432c-0.112-0.632-0.304-1.24-0.56-1.824l-32-72    c-1.464-3.304-4.912-5.184-8.536-4.656c-3.568,0.552-6.328,3.432-6.72,7.024l-7.856,70.736l-36.504,80.288l-33.576-11.192    l29.472-88.408c0.272-0.824,0.408-1.68,0.408-2.536v-192c0-13.232,10.768-24,24-24h56c13.232,0,24,10.768,24,24v48.904    l-33.216-53.144c-2.312-3.696-7.16-4.872-10.904-2.624l-40,24c-1.904,1.144-3.248,3.024-3.704,5.192    c-0.464,2.168,0,4.44,1.272,6.256l56,80c1.496,2.144,3.944,3.416,6.552,3.416h24v24c0,1.016,0.192,2.024,0.568,2.976    L184.278,386.227z M224.006,256.003c0,4.408-3.592,8-8,8h-56h-27.832l-48.688-69.552l25.904-15.544l35.832,57.336    c1.464,2.336,4.024,3.76,6.784,3.76h8h64V256.003z M264.006,224.003h-32h-64v-56v-40h96V224.003z" fill="#3a7510"/>
	</g>
</g>
<g>
</g>
<g>
</g>
<g>
</g>
<g>
</g>
<g>
</g>
<g>
</g>
<g>
</g>
<g>
</g>
<g>
</g>
<g>
</g>
<g>
</g>
<g>
</g>
<g>
</g>
<g>
</g>
<g>
</g>
</svg>
