<?xml version="1.0" encoding="iso-8859-1"?>
<!-- Generator: Adobe Illustrator 19.0.0, SVG Export Plug-In . SVG Version: 6.00 Build 0)  -->
<svg xmlns="http://www.w3.org/2000/svg" xmlns:xlink="http://www.w3.org/1999/xlink" version="1.1" id="Capa_1" x="0px" y="0px" viewBox="0 0 512 512" style="enable-background:new 0 0 512 512;" xml:space="preserve" width="512px" height="512px">
<g>
	<g>
		<path d="M384,53.333c-47.128,0-85.333,38.205-85.333,85.333S336.872,224,384,224c47.106-0.053,85.28-38.227,85.333-85.333    C469.333,91.538,431.128,53.333,384,53.333z M384,202.667c-35.346,0-64-28.654-64-64c0-35.346,28.654-64,64-64    c35.332,0.035,63.965,28.668,64,64C448,174.013,419.346,202.667,384,202.667z" fill="#3a7510"/>
	</g>
</g>
<g>
	<g>
		<path d="M408.459,109.792l-35.125,35.125l-13.792-13.792l-15.083,15.083l21.333,21.333c2,2.001,4.713,3.125,7.541,3.125    c2.829-0.001,5.541-1.125,7.541-3.125l42.667-42.667L408.459,109.792z" fill="#3a7510"/>
	</g>
</g>
<g>
	<g>
		<rect x="213.333" y="277.333" width="149.333" height="21.333" fill="#3a7510"/>
	</g>
</g>
<g>
	<g>
		<path d="M234.667,128H117.333c-41.218,0.047-74.62,33.449-74.667,74.667H64c0.035-29.441,23.893-53.298,53.333-53.333h117.333    c11.782,0,21.333,9.551,21.333,21.333c0,11.782-9.551,21.333-21.333,21.333H117.333v21.333h117.333    c23.564,0,42.667-19.102,42.667-42.667S258.231,128,234.667,128z" fill="#3a7510"/>
	</g>
</g>
<g>
	<g>
		<path d="M10.667,170.667C4.776,170.667,0,175.442,0,181.333V192h53.333v-21.333H10.667z" fill="#3a7510"/>
	</g>
</g>
<g>
	<g>
		<path d="M490.667,309.333v149.333c0,17.673-14.327,32-32,32h-256c-17.673,0-32-14.327-32-32v-256h-21.333v256    c0.035,29.441,23.893,53.298,53.333,53.333h256c29.441-0.035,53.298-23.893,53.333-53.333V309.333H490.667z" fill="#3a7510"/>
	</g>
</g>
<g>
	<g>
		<path d="M458.667,0H245.333c-2.829,0.001-5.541,1.125-7.541,3.125l-85.333,85.333l15.083,15.083l82.208-82.208h208.917    c17.673,0,32,14.327,32,32v149.333H512V53.333C511.965,23.893,488.107,0.035,458.667,0z" fill="#3a7510"/>
	</g>
</g>
<g>
	<g>
		<path d="M252.877,3.128c-4.165-4.166-10.919-4.167-15.085-0.002l-85.333,85.333c-2.001,2-3.125,4.713-3.125,7.541v42.667h21.333    v-38.251l64-64v38.251c0,5.891-4.776,10.667-10.667,10.667h-21.333v21.333H224c17.673,0,32-14.327,32-32v-64    C255.999,7.839,254.876,5.127,252.877,3.128z" fill="#3a7510"/>
	</g>
</g>
<g>
	<g>
		<path d="M64,288H42.667c0.047,41.218,33.449,74.62,74.667,74.667v-21.333C87.893,341.298,64.035,317.441,64,288z" fill="#3a7510"/>
	</g>
</g>
<g>
	<g>
		<rect x="117.333" y="341.333" width="42.667" height="21.333" fill="#3a7510"/>
	</g>
</g>
<g>
	<g>
		<path d="M0,298.667v10.667C0,315.224,4.776,320,10.667,320h42.667v-21.333H0z" fill="#3a7510"/>
	</g>
</g>
<g>
	<g>
		<path d="M502.741,233.259c-12.505-11.932-32.178-11.932-44.683,0l-148,148c-4.164,4.165-4.164,10.917,0,15.083l29.6,29.6    c2,2.001,4.713,3.125,7.541,3.125c2.829-0.001,5.541-1.125,7.541-3.125l148-148c0.005-0.005,0.011-0.011,0.016-0.016    C515.087,265.586,515.08,245.589,502.741,233.259z M487.659,262.859L347.2,403.317L332.683,388.8l140.459-140.459    c4.061-3.881,10.456-3.881,14.517,0c0.002,0.002,0.004,0.004,0.006,0.006C491.67,252.356,491.668,258.853,487.659,262.859z" fill="#3a7510"/>
	</g>
</g>
<g>
	<g>
		<path d="M342.4,408.864l-30.549,15.264l15.296-30.581L308.064,384l-29.611,59.232c-0.741,1.482-1.126,3.116-1.125,4.773    c0.003,5.891,4.781,10.664,10.672,10.662c1.65,0.014,3.281-0.351,4.768-1.067L352,427.947L342.4,408.864z" fill="#3a7510"/>
	</g>
</g>
<g>
	<g>
		<rect x="432.741" y="271.669" transform="matrix(0.7072 -0.707 0.707 0.7072 -77.0358 399.192)" width="21.333" height="41.856" fill="#3a7510"/>
	</g>
</g>
<g>
	<g>
		<rect x="213.333" y="437.333" width="74.667" height="21.333" fill="#3a7510"/>
	</g>
</g>
<g>
	<g>
		<rect x="213.333" y="384" width="64" height="21.333" fill="#3a7510"/>
	</g>
</g>
<g>
	<g>
		<rect x="213.333" y="330.667" width="96" height="21.333" fill="#3a7510"/>
	</g>
</g>
<g>
	<g>
		<rect x="352" y="437.333" width="96" height="21.333" fill="#3a7510"/>
	</g>
</g>
<g>
	<g>
		<rect x="405.333" y="384" width="42.667" height="21.333" fill="#3a7510"/>
	</g>
</g>
<g>
</g>
<g>
</g>
<g>
</g>
<g>
</g>
<g>
</g>
<g>
</g>
<g>
</g>
<g>
</g>
<g>
</g>
<g>
</g>
<g>
</g>
<g>
</g>
<g>
</g>
<g>
</g>
<g>
</g>
</svg>
