<?xml version="1.0"?>
<svg xmlns="http://www.w3.org/2000/svg" height="512px" viewBox="0 0 512 512" width="512px"><path d="m316.96875 0c-107.542969 0-195.035156 87.492188-195.035156 195.03125 0 37.5 10.648437 72.554688 29.066406 102.320312l-151 151 63.652344 63.648438 150.996094-151c29.765624 18.417969 64.820312 29.066406 102.320312 29.066406 107.539062 0 195.03125-87.492187 195.03125-195.035156 0-107.539062-87.492188-195.03125-195.03125-195.03125zm-274.535156 448.351562 21.21875-21.21875 21.214844 21.214844-21.214844 21.21875zm63.652344-21.21875-21.21875-21.21875 84.058593-84.054687c6.519531 7.597656 13.613281 14.695313 21.214844 21.214844zm210.882812-67.070312c-91 0-165.03125-74.03125-165.03125-165.03125 0-90.996094 74.03125-165.027344 165.03125-165.027344 90.996094 0 165.027344 74.03125 165.027344 165.027344 0 91-74.03125 165.03125-165.027344 165.03125zm0 0" fill="#3a7510"/><path d="m420.910156 180.03125c-2.554687-17.765625-9.5625-34.113281-19.867187-47.859375l22.007812-22.003906-21.21875-21.21875-22.003906 22.007812c-13.746094-10.304687-30.09375-17.3125-47.859375-19.867187v-31.078125h-30.003906v31.078125c-17.765625 2.554687-34.113282 9.5625-47.859375 19.867187l-22.003907-22.007812-21.21875 21.21875 22.007813 22.003906c-10.304687 13.746094-17.3125 30.09375-19.867187 47.859375h-31.078126v30.003906h31.078126c2.554687 17.765625 9.5625 34.113282 19.867187 47.859375l-22.007813 22.007813 21.21875 21.214844 22.003907-22.007813c13.746093 10.304687 30.09375 17.3125 47.859375 19.867187v31.078126h30.003906v-31.078126c17.765625-2.554687 34.113281-9.5625 47.859375-19.867187l22.003906 22.007813 21.21875-21.214844-22.007812-22.007813c10.304687-13.746093 17.3125-30.09375 19.867187-47.859375h31.078125v-30.003906zm-103.941406 90.015625c-41.363281 0-75.015625-33.652344-75.015625-75.015625 0-41.359375 33.652344-75.011719 75.015625-75.011719 41.359375 0 75.011719 33.652344 75.011719 75.011719 0 41.363281-33.652344 75.015625-75.011719 75.015625zm0 0" fill="#3a7510"/><path d="m265.742188 165.03125 21.21875-21.21875 21.214843 21.21875-21.214843 21.214844zm0 0" fill="#3a7510"/><path d="m316.96875 246.257812-21.21875-21.214843 21.21875-21.21875 21.214844 21.21875zm0 0" fill="#3a7510"/><path d="m346.972656 186.25-21.21875-21.21875 21.21875-21.214844 21.214844 21.214844zm0 0" fill="#3a7510"/></svg>
