<?xml version="1.0"?>
<svg xmlns="http://www.w3.org/2000/svg" height="512px" viewBox="0 -2 511.99987 511" width="512px"><path d="m318.445312 508.210938c-18.957031 0-36.707031-5.871094-60.957031-16.019532-46-19.246094-96.855469-55.375-143.195312-101.734375-46.335938-46.359375-82.449219-97.234375-101.6875-143.253906-19.503907-46.664063-16.363281-83.359375 9.339843-109.070313l36.320313-36.332031c9.101563-8.820312 21.511719-12.917969 34.070313-11.257812 12.816406 1.695312 23.859374 9.09375 30.308593 20.300781.035157.0625.070313.125.105469.1875l49.554688 90.582031c9.207031 16.105469 6.488281 36.488281-6.628907 49.613281l-19.050781 19.054688c-1.125 1.128906-1.234375 2.894531-.257812 4.113281 11.503906 14.300781 25.644531 29.984375 39.8125 44.160157 14.15625 14.167968 29.835937 28.3125 44.140624 39.828124 1.214844.976563 2.976563.863282 4.097657-.257812l19.050781-19.058594c13.117188-13.125 33.496094-15.847656 49.597656-6.632812l90.546875 49.574218c.0625.035157.125.070313.1875.109376 11.199219 6.449218 18.59375 17.5 20.289063 30.316406 1.660156 12.558594-2.4375 24.972656-11.238282 34.066406l-.449218.457031-35.878906 35.894531c-10.09375 10.097657-25.351563 25.359376-48.078126 25.359376zm-231.554687-398.023438c-5.464844 0-10.703125 2.097656-14.695313 5.964844l-.269531.265625-35.835937 35.851562c-19.683594 19.695313-21.328125 48.222657-5.027344 87.21875 17.988281 43.039063 53.484375 92.914063 97.378906 136.828125 43.894532 43.914063 93.746094 79.421875 136.765625 97.421875 21.90625 9.164063 37.640625 14.46875 53.238281 14.46875 13.351563 0 23.265626-8.828125 33.929688-19.5l36.117188-36.136719c4.515624-4.660156 6.621093-11.050781 5.765624-17.519531-.867187-6.5625-4.640624-12.230469-10.355468-15.554687l-90.53125-49.570313c-.0625-.03125-.125-.066406-.1875-.105469-8.285156-4.773437-18.804688-3.382812-25.570313 3.386719l-19.046875 19.054688c-8.363281 8.367187-21.597656 9.097656-30.789062 1.699219-14.847656-11.953126-31.09375-26.609376-45.742188-41.265626-14.660156-14.667968-29.3125-30.921874-41.25-45.765624-7.390625-9.191407-6.660156-22.425782 1.699219-30.789063l19.046875-19.058594c6.769531-6.769531 8.160156-17.292969 3.382812-25.589843-.035156-.0625-.070312-.125-.105468-.191407l-49.542969-90.566406c-3.328125-5.71875-8.988281-9.496094-15.550781-10.363281-.945313-.125-1.886719-.183594-2.824219-.183594zm0 0" fill="#3a7510"/><path d="m61.550781 243.292969c-.660156 0-1.308593-.058594-1.960937-.191407-.640625-.128906-1.269532-.316406-1.867188-.566406-.601562-.253906-1.183594-.5625-1.722656-.921875-.550781-.371093-1.058594-.789062-1.519531-1.25-.46875-.460937-.878907-.96875-1.25-1.519531-.359375-.539062-.667969-1.121094-.917969-1.722656-.25-.609375-.441406-1.238282-.570312-1.867188-.128907-.652344-.191407-1.3125-.191407-1.960937 0-.652344.0625-1.3125.191407-1.949219.128906-.640625.320312-1.273438.570312-1.871094.25-.609375.558594-1.191406.917969-1.730468.371093-.550782.78125-1.058594 1.25-1.519532.460937-.460937.972656-.882812 1.519531-1.242187.539062-.359375 1.121094-.667969 1.722656-.917969.597656-.25 1.226563-.441406 1.867188-.570312 1.292968-.261719 2.621094-.261719 3.910156 0 .640625.128906 1.273438.320312 1.871094.570312.601562.25 1.179687.558594 1.730468.917969.550782.359375 1.058594.78125 1.519532 1.242187.460937.460938.878906.96875 1.242187 1.519532.359375.539062.667969 1.121093.917969 1.730468.25.597656.441406 1.230469.570312 1.871094.128907.636719.199219 1.296875.199219 1.949219 0 .648437-.070312 1.308593-.199219 1.960937-.128906.628906-.320312 1.257813-.570312 1.867188-.25.601562-.558594 1.183594-.917969 1.722656-.363281.550781-.78125 1.058594-1.242187 1.519531-.460938.460938-.96875.878907-1.519532 1.25-.550781.359375-1.132812.667969-1.730468.921875-.597656.25-1.230469.4375-1.871094.566406-.648438.132813-1.296875.191407-1.949219.191407zm0 0" fill="#3a7510"/><path d="m318.335938 467.761719c-.007813 0-.015626 0-.023438 0-10.714844-.03125-22.546875-3.402344-45.222656-12.890625-40.660156-17.007813-88.117188-50.914063-130.203125-93.019532-32.152344-32.164062-55.601563-61.675781-73.796875-92.871093-2.78125-4.769531-1.167969-10.894531 3.601562-13.675781 4.773438-2.785157 10.898438-1.171876 13.679688 3.601562 17.304687 29.667969 39.757812 57.886719 70.664062 88.804688 40.3125 40.332031 85.425782 72.664062 123.773438 88.710937 17.535156 7.335937 27.523437 10.578125 34.917968 11.214844 1.339844-1.078125 3.761719-3.230469 8.058594-7.527344l27.140625-27.152344c3.902344-3.90625 10.238281-3.910156 14.144531-.003906s3.90625 10.238281.003907 14.144531l-27.140625 27.148438c-8.382813 8.386718-12.703125 11.796875-16.519532 13.03125-.996093.320312-2.03125.484375-3.078124.484375zm0 0" fill="#3a7510"/><path d="m360.433594 303.925781c-25.535156 0-51.242188-6.464843-74.601563-19.707031l-54.707031 8.808594c-3.164062.511718-6.390625-.53125-8.660156-2.800782-2.269532-2.269531-3.3125-5.492187-2.800782-8.660156l8.808594-54.738281c-33.542968-59.207031-23.585937-133.503906 24.792969-181.902344 28.632813-28.648437 66.703125-44.425781 107.199219-44.425781s78.570312 15.777344 107.203125 44.425781c59.109375 59.132813 59.109375 155.351563 0 214.484375-29.285157 29.300782-68.0625 44.515625-107.234375 44.515625zm-72.65625-40.152343c1.800781 0 3.578125.484374 5.140625 1.421874 51.804687 31.046876 117.847656 22.851563 160.605469-19.925781 51.316406-51.335937 51.316406-134.871093 0-186.207031-24.855469-24.867188-57.90625-38.5625-93.058594-38.5625s-68.199219 13.695312-93.054688 38.5625c-42.761718 42.777344-50.949218 108.855469-19.917968 160.6875 1.210937 2.019531 1.667968 4.402344 1.292968 6.726562l-7.175781 44.601563 44.578125-7.179687c.527344-.085938 1.0625-.125 1.589844-.125zm0 0" fill="#3a7510"/><path d="m360.910156 256.402344c-27.992187 0-54.28125-10.875-74.023437-30.628906-40.816407-40.832032-40.816407-107.269532 0-148.101563 19.742187-19.753906 46.03125-30.632813 74.023437-30.632813 27.992188 0 54.28125 10.878907 74.027344 30.632813 40.8125 40.832031 40.8125 107.269531 0 148.101563-19.746094 19.75-46.035156 30.628906-74.027344 30.628906zm-59.878906-44.769532c15.96875 15.972657 37.234375 24.769532 59.878906 24.769532 22.648438 0 43.914063-8.796875 59.878906-24.769532 33.019532-33.035156 33.019532-86.785156 0-119.824218-15.964843-15.972656-37.230468-24.769532-59.878906-24.769532-22.648437 0-43.910156 8.796876-59.878906 24.769532-33.019531 33.035156-33.019531 86.789062 0 119.824218zm0 0" fill="#3a7510"/><path d="m358.097656 184.003906c-12.128906-.402344-22.035156-6.675781-22.035156-13.148437 0-3.4375 3.03125-8.496094 6.871094-8.496094 4.246094 0 7.683594 5.96875 15.164062 7.285156v-16.386719c-9.300781-3.539062-20.21875-7.886718-20.21875-20.832031 0-12.84375 9.503906-19.015625 20.21875-20.53125v-2.832031c0-1.414062 1.617188-2.730469 3.84375-2.730469 1.917969 0 3.839844 1.316407 3.839844 2.730469v2.527344c6.269531.203125 18.097656 1.820312 18.097656 8.800781 0 2.730469-1.820312 8.292969-6.269531 8.292969-3.335937 0-5.253906-3.238282-11.828125-3.742188v14.765625c9.199219 3.4375 19.914062 8.191407 19.914062 21.84375 0 12.542969-8.085937 20.128907-19.914062 22.050781v2.929688c0 1.417969-1.921875 2.730469-3.839844 2.730469-2.226562 0-3.84375-1.3125-3.84375-2.730469zm1.011719-46.722656v-12.039062c-4.550781.910156-6.46875 3.238281-6.46875 5.664062 0 2.933594 2.628906 4.753906 6.46875 6.375zm5.660156 18.707031v13.550781c3.4375-.808593 6.167969-2.726562 6.167969-6.367187 0-3.339844-2.527344-5.460937-6.167969-7.183594zm0 0" fill="#3a7510"/></svg>
