<?xml version="1.0"?>
<svg xmlns="http://www.w3.org/2000/svg" height="512px" viewBox="-4 0 504 504" width="512px"><path d="m472 456c-13.230469 0-24 10.769531-24 24s10.769531 24 24 24 24-10.769531 24-24-10.769531-24-24-24zm0 32c-4.40625 0-8-3.585938-8-8s3.59375-8 8-8 8 3.585938 8 8-3.59375 8-8 8zm0 0" fill="#3a7510"/><path d="m48 24c0-13.230469-10.769531-24-24-24s-24 10.769531-24 24 10.769531 24 24 24 24-10.769531 24-24zm-32 0c0-4.40625 3.59375-8 8-8s8 3.59375 8 8-3.59375 8-8 8-8-3.59375-8-8zm0 0" fill="#3a7510"/><path d="m429.769531 317.03125-15.800781-31.597656c3.351562-6.800782 6.222656-13.671875 8.582031-20.511719l33.449219-11.152344v-91.539062l-33.449219-11.152344c-2.351562-6.839844-5.230469-13.710937-8.582031-20.511719l15.816406-31.628906-64.722656-64.722656-31.628906 15.816406c-6.800782-3.351562-13.671875-6.230469-20.511719-8.582031l-11.152344-33.449219h-91.539062l-11.152344 33.449219c-6.839844 2.351562-13.710937 5.230469-20.511719 8.582031l-31.628906-15.816406-64.722656 64.722656 15.816406 31.628906c-3.351562 6.800782-6.230469 13.671875-8.582031 20.511719l-33.449219 11.152344v91.53125l33.449219 11.148437c2.335937 6.792969 5.175781 13.601563 8.496093 20.347656l-10.289062 18.742188h-47.65625v160h56v-24h60.6875l24 24h43.3125v8c0 17.648438 14.351562 32 32 32s32-14.351562 32-32v-8h56.007812c13.230469 0 24-10.769531 24-24 0-6.167969-2.40625-11.742188-6.238281-16 3.839844-4.257812 6.238281-9.832031 6.238281-16s-2.40625-11.742188-6.238281-16c3.054688-3.390625 5.140625-7.625 5.871094-12.34375zm-315.679687-35.320312c-4.402344-8.453126-7.992188-17.046876-10.675782-25.527344l-1.230468-3.886719-30.183594-10.066406v-68.46875l30.183594-10.058594 1.222656-3.894531c2.671875-8.472656 6.265625-17.066406 10.671875-25.519532l1.882813-3.625-14.28125-28.566406 48.410156-48.410156 28.566406 14.28125 3.625-1.878906c8.460938-4.410156 17.046875-8 25.519531-10.675782l3.894531-1.222656 10.074219-30.191406h68.46875l10.058594 30.183594 3.894531 1.222656c8.472656 2.671875 17.066406 6.265625 25.519532 10.671875l3.625 1.882813 28.566406-14.28125 48.410156 48.410156-14.28125 28.566406 1.878906 3.625c4.410156 8.460938 8 17.046875 10.675782 25.519531l1.222656 3.894531 30.191406 10.074219v68.46875l-30.183594 10.058594-1.230468 3.886719c-2.683594 8.480468-6.273438 17.074218-10.675782 25.527344l-1.878906 3.625 14.296875 28.585937-47.273437 47.636719c-.40625-.535156-.839844-1.0625-1.285157-1.558594 3.839844-4.257812 6.238281-9.832031 6.238281-16 0-12.480469-9.609374-22.640625-21.792968-23.777344 33.9375-27.199218 53.785156-68.015625 53.785156-112.222656 0-79.398438-64.601562-144-144-144s-144 64.601562-144 144c0 43.671875 19.855469 84.753906 53.558594 112h-68.429688l18.933594-34.496094zm237.917968 126.289062c0 4.414062-3.59375 8-8 8h-64.007812c-4.40625 0-8-3.585938-8-8s3.59375-8 8-8h64.007812c4.40625 0 8 3.585938 8 8zm-115.320312-200h38.625l12.6875-12.6875v-35.3125c8.824219 0 16 7.175781 16 16v36.6875l-27.3125 27.3125h-41.375l-27.3125-27.3125v-36.6875c0-8.824219 7.175781-16 16-16v35.3125zm3.3125 48h32v32h-32zm48-4.6875 32-32v-43.3125c0-17.648438-14.351562-32-32-32h-16v44.6875l-3.3125 3.3125h-25.375l-3.3125-3.3125v-44.6875h-16c-17.648438 0-32 14.351562-32 32v43.3125l32 32v36.6875h-19.3125l-.503906.503906c-27.3125-17.625-44.183594-47.839844-44.183594-80.503906 0-52.9375 43.0625-96 96-96s96 43.0625 96 96c0 32.425781-16.199219 62.121094-43.3125 80h-20.6875zm80-43.3125c0-61.761719-50.238281-112-112-112s-112 50.238281-112 112c0 36.953125 18.382812 71.359375 48.535156 92.152344l-11.519531 11.519531c-33.222656-24.0625-53.015625-62.574219-53.015625-103.671875 0-70.574219 57.425781-128 128-128s128 57.425781 128 128c0 39.535156-17.871094 76.015625-48.382812 100.199219-.914063-5.671875-3.808594-10.632813-7.96875-14.238281 25.496093-21.167969 40.351562-52.335938 40.351562-85.960938zm-23.992188 128c4.40625 0 8 3.585938 8 8s-3.59375 8-8 8h-64.007812c-4.40625 0-8-3.585938-8-8s3.59375-8 8-8zm-64.007812 48c-4.40625 0-8-3.585938-8-8s3.59375-8 8-8h64.007812c4.40625 0 8 3.585938 8 8s-3.59375 8-8 8zm-200 64h-24v-128h24zm107.3125 0-24-24h-67.3125v-88h83.3125l32-32h100.6875c4.40625 0 8 3.585938 8 8s-3.59375 8-8 8h-83.3125l-34.34375 34.34375 11.3125 11.3125 18.34375-18.34375v100.6875zm68.6875 40c-8.824219 0-16-7.175781-16-16v-136h17.472656c-.898437 2.511719-1.472656 5.183594-1.472656 8 0 6.167969 2.40625 11.742188 6.238281 16-3.839843 4.257812-6.238281 9.832031-6.238281 16s2.40625 11.742188 6.238281 16c-3.839843 4.257812-6.238281 9.832031-6.238281 16s2.40625 11.742188 6.238281 16c-3.839843 4.257812-6.238281 9.832031-6.238281 16 0 10.414062 6.710938 19.214844 16 22.527344v9.472656c0 8.824219-7.175781 16-16 16zm88.007812-40h-64.007812c-4.40625 0-8-3.585938-8-8s3.59375-8 8-8h64.007812c4.40625 0 8 3.585938 8 8s-3.59375 8-8 8zm0 0" fill="#3a7510"/><path d="m16 72h16v16h-16zm0 0" fill="#3a7510"/><path d="m16 112h16v16h-16zm0 0" fill="#3a7510"/><path d="m16 152h16v16h-16zm0 0" fill="#3a7510"/><path d="m464 336h16v16h-16zm0 0" fill="#3a7510"/><path d="m464 376h16v16h-16zm0 0" fill="#3a7510"/><path d="m464 416h16v16h-16zm0 0" fill="#3a7510"/></svg>
