<svg height="512pt" viewBox="0 -12 512 511" width="512pt" xmlns="http://www.w3.org/2000/svg"><path d="m511.992188 256.359375c-.050782-2.929687-1.886719-5.664063-4.601563-6.789063l-195.78125-86.144531v-155.410156c0-4.152344-3.363281-7.515625-7.515625-7.515625h-96.1875c-4.152344 0-7.515625 3.363281-7.515625 7.515625v155.410156l-195.78125 86.144531c-2.753906 1.15625-4.609375 3.941407-4.609375 6.929688v96.1875c0 4.152344 3.363281 7.515625 7.515625 7.515625h496.96875c4.152344 0 7.515625-3.363281 7.515625-7.515625v-96.1875c0-.046875-.007812-.09375-.007812-.140625zm-296.570313-240.828125h81.15625v145.28125h-81.15625zm-200.390625 329.640625v-81.15625h365.546875c4.148437 0 7.511719-3.367187 7.511719-7.515625s-3.363282-7.515625-7.511719-7.515625h-337.324219l166.230469-73.140625h93.03125l166.230469 73.140625h-52.765625c-4.152344 0-7.515625 3.367187-7.515625 7.515625s3.363281 7.515625 7.515625 7.515625h80.988281v81.15625zm0 0"/><path d="m384.25 281.046875c-12.984375 0-23.546875 10.5625-23.546875 23.546875s10.5625 23.546875 23.546875 23.546875 23.546875-10.5625 23.546875-23.546875-10.5625-23.546875-23.546875-23.546875zm0 32.0625c-4.695312 0-8.515625-3.820313-8.515625-8.515625s3.820313-8.515625 8.515625-8.515625 8.515625 3.820313 8.515625 8.515625-3.820313 8.515625-8.515625 8.515625zm0 0"/><path d="m127.75 281.046875c-12.984375 0-23.546875 10.5625-23.546875 23.546875s10.5625 23.546875 23.546875 23.546875 23.546875-10.5625 23.546875-23.546875-10.5625-23.546875-23.546875-23.546875zm0 32.0625c-4.695312 0-8.515625-3.820313-8.515625-8.515625s3.820313-8.515625 8.515625-8.515625 8.515625 3.820313 8.515625 8.515625-3.820313 8.515625-8.515625 8.515625zm0 0"/><path d="m320.125 281.046875h-128.25c-4.152344 0-7.515625 3.367187-7.515625 7.515625v32.0625c0 4.148438 3.363281 7.515625 7.515625 7.515625h128.25c4.152344 0 7.515625-3.367187 7.515625-7.515625v-32.0625c0-4.148438-3.363281-7.515625-7.515625-7.515625zm-7.515625 32.0625h-113.21875v-17.03125h113.21875zm0 0"/><path d="m432.34375 281.046875c-4.152344 0-7.515625 3.367187-7.515625 7.515625v32.0625c0 4.148438 3.363281 7.515625 7.515625 7.515625s7.515625-3.367187 7.515625-7.515625v-32.0625c0-4.148438-3.363281-7.515625-7.515625-7.515625zm0 0"/><path d="m456.390625 281.046875c-4.148437 0-7.515625 3.367187-7.515625 7.515625v32.0625c0 4.148438 3.367188 7.515625 7.515625 7.515625 4.152344 0 7.515625-3.367187 7.515625-7.515625v-32.0625c0-4.148438-3.363281-7.515625-7.515625-7.515625zm0 0"/><path d="m480.4375 281.046875c-4.148438 0-7.515625 3.367187-7.515625 7.515625v32.0625c0 4.148438 3.367187 7.515625 7.515625 7.515625 4.152344 0 7.515625-3.367187 7.515625-7.515625v-32.0625c0-4.148438-3.363281-7.515625-7.515625-7.515625zm0 0"/><path d="m79.65625 281.046875c-4.152344 0-7.515625 3.367187-7.515625 7.515625v32.0625c0 4.148438 3.363281 7.515625 7.515625 7.515625s7.515625-3.367187 7.515625-7.515625v-32.0625c0-4.148438-3.363281-7.515625-7.515625-7.515625zm0 0"/><path d="m55.609375 281.046875c-4.152344 0-7.515625 3.367187-7.515625 7.515625v32.0625c0 4.148438 3.363281 7.515625 7.515625 7.515625 4.148437 0 7.515625-3.367187 7.515625-7.515625v-32.0625c0-4.148438-3.367188-7.515625-7.515625-7.515625zm0 0"/><path d="m31.5625 281.046875c-4.152344 0-7.515625 3.367187-7.515625 7.515625v32.0625c0 4.148438 3.363281 7.515625 7.515625 7.515625 4.148438 0 7.515625-3.367187 7.515625-7.515625v-32.0625c0-4.148438-3.367187-7.515625-7.515625-7.515625zm0 0"/><path d="m272.03125 377.234375c-.757812 0-18.644531.160156-27.121094 13.875-6.667968 10.789063-5.199218 25.960937 4.367188 45.09375 6.859375 13.71875 8.65625 24.519531 5.0625 30.417969-4.019532 6.597656-14.3125 6.800781-14.371094 6.800781-4.152344 0-7.515625 3.367187-7.515625 7.515625 0 4.152344 3.363281 7.515625 7.515625 7.515625.757812 0 18.644531-.15625 27.121094-13.875 6.667968-10.789063 5.199218-25.960937-4.367188-45.09375-6.859375-13.714844-8.65625-24.519531-5.0625-30.414063 3.988282-6.542968 14.140625-6.800781 14.414063-6.804687 4.128906-.023437 7.472656-3.378906 7.472656-7.515625 0-4.148438-3.363281-7.515625-7.515625-7.515625zm0 0"/><path d="m352.1875 377.234375c-.757812 0-18.644531.160156-27.121094 13.875-6.667968 10.789063-5.199218 25.960937 4.367188 45.09375 6.859375 13.71875 8.65625 24.519531 5.0625 30.417969-4.019532 6.597656-14.3125 6.800781-14.371094 6.800781-4.09375 0-7.515625 3.421875-7.515625 7.515625 0 4.097656 3.421875 7.515625 7.515625 7.515625.757812 0 18.644531-.15625 27.121094-13.875 6.667968-10.789063 5.199218-25.960937-4.367188-45.09375-6.859375-13.714844-8.65625-24.519531-5.0625-30.414063 3.988282-6.542968 14.140625-6.800781 14.414063-6.804687 4.128906-.023437 7.472656-3.378906 7.472656-7.515625 0-4.148438-3.363281-7.515625-7.515625-7.515625zm0 0"/><path d="m191.875 377.234375c-.757812 0-18.644531.160156-27.121094 13.875-6.667968 10.789063-5.199218 25.960937 4.367188 45.09375 6.859375 13.71875 8.65625 24.519531 5.0625 30.417969-4.019532 6.597656-14.3125 6.800781-14.371094 6.800781-4.09375 0-7.515625 3.421875-7.515625 7.515625 0 4.097656 3.421875 7.515625 7.515625 7.515625.757812 0 18.644531-.15625 27.121094-13.875 6.667968-10.789063 5.199218-25.960937-4.367188-45.09375-6.859375-13.714844-8.65625-24.519531-5.0625-30.414063 3.988282-6.542968 14.140625-6.800781 14.410156-6.804687 4.132813-.023437 7.476563-3.378906 7.476563-7.515625 0-4.148438-3.363281-7.515625-7.515625-7.515625zm0 0"/></svg>