<?xml version="1.0" ?><svg data-name="Layer 1" id="Layer_1" viewBox="0 0 32 32" xmlns="http://www.w3.org/2000/svg"><defs><style>.cls-1{fill:#231f20;}</style></defs><title/><path class="cls-1" d="M15.73,4.36L13.36,1l-7,21.89,2.82,1a1.91,1.91,0,0,1,1.48,2.34L9.3,31h13l0.15-.25A22.05,22.05,0,0,0,25,21C25,13.22,22.23,8.24,15.73,4.36ZM7.62,22.26l6.09-19,1.13,1.59L9,22.76ZM21.71,30H10.63l1-3.52A2.77,2.77,0,0,0,10,23.14L15.67,5.5C21.49,9.14,24,13.8,24,21A21.19,21.19,0,0,1,21.71,30Z"/><rect class="cls-1" height="1" transform="translate(-9.9 32.49) rotate(-73.14)" width="5.33" x="14.28" y="22.42"/><path class="cls-1" d="M17.65,12.91l-0.58-.45L12.1,29h8.24l0.13-.31A20.07,20.07,0,0,0,22,22C22,17.77,20.9,15.47,17.65,12.91Zm2,15.09H13.44L17.6,14.17C20.16,16.34,21,18.34,21,22A18.49,18.49,0,0,1,19.66,28Z"/></svg>