<?xml version="1.0" encoding="iso-8859-1"?>
<!-- Generator: Adobe Illustrator 17.1.0, SVG Export Plug-In . SVG Version: 6.00 Build 0)  -->
<!DOCTYPE svg PUBLIC "-//W3C//DTD SVG 1.1//EN" "http://www.w3.org/Graphics/SVG/1.1/DTD/svg11.dtd">
<svg version="1.1" id="Capa_1" xmlns="http://www.w3.org/2000/svg" xmlns:xlink="http://www.w3.org/1999/xlink" x="0px" y="0px"
	 viewBox="0 0 475.801 475.801" style="enable-background:new 0 0 475.801 475.801;" xml:space="preserve">
<path d="M49.783,313.47v37.785c0,4.142-3.357,7.5-7.5,7.5s-7.5-3.358-7.5-7.5V313.47c0-4.142,3.357-7.5,7.5-7.5
	S49.783,309.328,49.783,313.47z M67.18,305.97c-4.143,0-7.5,3.358-7.5,7.5v37.785c0,4.142,3.357,7.5,7.5,7.5s7.5-3.358,7.5-7.5
	V313.47C74.68,309.328,71.322,305.97,67.18,305.97z M92.075,305.97c-4.143,0-7.5,3.358-7.5,7.5v37.785c0,4.142,3.357,7.5,7.5,7.5
	s7.5-3.358,7.5-7.5V313.47C99.575,309.328,96.218,305.97,92.075,305.97z M116.972,305.97c-4.143,0-7.5,3.358-7.5,7.5v37.785
	c0,4.142,3.357,7.5,7.5,7.5s7.5-3.358,7.5-7.5V313.47C124.472,309.328,121.114,305.97,116.972,305.97z M141.867,305.97
	c-4.143,0-7.5,3.358-7.5,7.5v37.785c0,4.142,3.357,7.5,7.5,7.5s7.5-3.358,7.5-7.5V313.47
	C149.367,309.328,146.01,305.97,141.867,305.97z M166.764,305.97c-4.143,0-7.5,3.358-7.5,7.5v37.785c0,4.142,3.357,7.5,7.5,7.5
	s7.5-3.358,7.5-7.5V313.47C174.264,309.328,170.906,305.97,166.764,305.97z M475.801,203.363v87.967
	c0,16.343-13.296,29.64-29.64,29.64h-34.422v49.177v44.377c0,10.917-8.882,19.799-19.8,19.799H19.8
	c-10.918,0-19.8-8.882-19.8-19.799V154.066c0-20.413,16.606-37.02,37.02-37.02h148.777c11.146,0,21.149,4.958,27.941,12.777
	l4.316-8.631c1.271-2.541,3.867-4.146,6.708-4.146h76.016h20.393V56.478h-8.438c-4.143,0-7.5-3.358-7.5-7.5s3.357-7.5,7.5-7.5
	h15.938h49.888h16.235c4.143,0,7.5,3.358,7.5,7.5s-3.357,7.5-7.5,7.5h-8.735v60.569h8.735c2.841,0,5.438,1.605,6.708,4.146
	l9.446,18.893c0.521,1.042,0.792,2.189,0.792,3.354v30.285h34.422C462.505,173.724,475.801,187.02,475.801,203.363z
	 M390.158,132.046h-11.601h-46.373v22.785h15.377c4.143,0,7.5,3.358,7.5,7.5s-3.357,7.5-7.5,7.5h-15.377v7.739
	c3.332,0.687,5.866,3.584,5.975,7.114l4.302,140.178h5.101c4.143,0,7.5,3.358,7.5,7.5s-3.357,7.5-7.5,7.5h-4.641l0.699,22.785
	h53.119v-22.785h-11.393c-4.143,0-7.5-3.358-7.5-7.5s3.357-7.5,7.5-7.5h11.393V169.831h-11.393c-4.143,0-7.5-3.358-7.5-7.5
	s3.357-7.5,7.5-7.5h11.393v-9.622L390.158,132.046z M281.843,362.646l0.699-22.785h-59.727v22.785H281.843z M298.009,324.862h29.445
	l-4.064-132.448h-21.317L298.009,324.862z M317.185,169.831h-8.907v7.583h8.907V169.831z M293.277,169.831h-70.462v155.031h60.187
	l4.3-140.178c0.108-3.53,2.643-6.426,5.975-7.114V169.831z M296.85,362.646h31.764l-0.699-22.785h-30.365L296.85,362.646z
	 M336.17,56.478v60.569h34.888V56.478H336.17z M308.277,132.046v22.785h8.907v-22.785H308.277z M222.815,154.066v0.765h70.462
	v-22.785h-63.88l-6.582,13.163V154.066z M396.739,377.646h-60.373h-0.02h-47.23h-73.801c-4.143,0-7.5-3.358-7.5-7.5V154.066
	c0-12.142-9.878-22.02-22.019-22.02H37.02c-12.142,0-22.02,9.878-22.02,22.02v260.458c0,2.646,2.153,4.799,4.8,4.799h372.14
	c2.646,0,4.8-2.153,4.8-4.799V377.646z M411.739,305.97h23.968V188.724h-23.968V305.97z M460.801,203.363
	c0-6.485-4.242-11.99-10.094-13.907v115.783c5.852-1.918,10.094-7.423,10.094-13.908V203.363z"/>
<g>
</g>
<g>
</g>
<g>
</g>
<g>
</g>
<g>
</g>
<g>
</g>
<g>
</g>
<g>
</g>
<g>
</g>
<g>
</g>
<g>
</g>
<g>
</g>
<g>
</g>
<g>
</g>
<g>
</g>
</svg>
