<?xml version="1.0" encoding="iso-8859-1"?>
<!-- Generator: Adobe Illustrator 19.0.0, SVG Export Plug-In . SVG Version: 6.00 Build 0)  -->
<svg version="1.1" id="Capa_1" xmlns="http://www.w3.org/2000/svg" xmlns:xlink="http://www.w3.org/1999/xlink" x="0px" y="0px"
	 viewBox="0 0 496 496" style="enable-background:new 0 0 496 496;" xml:space="preserve">
<g>
	<g>
		<g>
			<path d="M320,32H96c-13.232,0-24,10.768-24,24v384c0,13.232,10.768,24,24,24h224c13.232,0,24-10.768,24-24V56
				C344,42.768,333.232,32,320,32z M328,440c0,4.416-3.592,8-8,8H96c-4.408,0-8-3.584-8-8v-96h57.224h61.552H224h64h40V440z
				 M152,272c0-13.232,10.768-24,24-24s24,10.768,24,24H152z M199.896,288l-6.664,40h-34.448l-6.672-40H199.896z M272,264v64h-32
				v-64H272z M248,248v-16h16v16H248z M328,184h-16v16h16v128h-40v-80h-8v-32h-48v32h-8v80h-14.56l6.448-38.688L216,272
				c0-22.056-17.944-40-40-40c-22.056,0-40,17.944-40,40v16l6.584,40H88V200h208v-16H88V56c0-4.408,3.592-8,8-8h224
				c4.408,0,8,3.592,8,8V184z"/>
			<path d="M152,408h112v-48H152V408z M168,376h80v16h-80V376z"/>
			<rect x="104" y="64" width="64" height="16"/>
			<path d="M424,139.056V32c0-17.648-14.352-32-32-32c-13.264,0-24.656,8.112-29.504,19.632C352.216,7.64,336.992,0,320,0H96
				C65.12,0,40,25.12,40,56v384c0,30.872,25.12,56,56,56h224c16.992,0,32.216-7.64,42.496-19.632
				C367.344,487.888,378.736,496,392,496c17.648,0,32-14.352,32-32V276.944l32-16V155.056L424,139.056z M408,464
				c0,8.824-7.176,16-16,16c-8.824,0-16-7.176-16-16v-40h-16v16c0,22.056-17.944,40-40,40H96c-22.056,0-40-17.944-40-40V56
				c0-22.056,17.944-40,40-40h224c22.056,0,40,17.944,40,40v352h16V32c0-8.824,7.176-16,16-16c8.824,0,16,7.176,16,16V464z
				 M440,251.056l-16,8V156.944l16,8V251.056z"/>
		</g>
	</g>
</g>
<g>
</g>
<g>
</g>
<g>
</g>
<g>
</g>
<g>
</g>
<g>
</g>
<g>
</g>
<g>
</g>
<g>
</g>
<g>
</g>
<g>
</g>
<g>
</g>
<g>
</g>
<g>
</g>
<g>
</g>
</svg>
