<?xml version="1.0" encoding="iso-8859-1"?>
<!-- Generator: Adobe Illustrator 19.0.0, SVG Export Plug-In . SVG Version: 6.00 Build 0)  -->
<svg version="1.1" id="Capa_1" xmlns="http://www.w3.org/2000/svg" xmlns:xlink="http://www.w3.org/1999/xlink" x="0px" y="0px"
	 viewBox="0 0 480 480" style="enable-background:new 0 0 480 480;" xml:space="preserve">
<g>
	<g>
		<path d="M232,0H40C17.92,0.026,0.026,17.92,0,40v400c0.026,22.08,17.92,39.974,40,40h192c22.08-0.026,39.974-17.92,40-40V40
			C271.974,17.92,254.08,0.026,232,0z M256,440c0,13.255-10.745,24-24,24H40c-13.255,0-24-10.745-24-24V40c0-13.255,10.745-24,24-24
			h192c13.255,0,24,10.745,24,24V440z"/>
	</g>
</g>
<g>
	<g>
		<path d="M224,40H48c-4.418,0-8,3.582-8,8v112c0,4.418,3.582,8,8,8h176c4.418,0,8-3.582,8-8V48C232,43.582,228.418,40,224,40z
			 M216,152H56V56h160V152z"/>
	</g>
</g>
<g>
	<g>
		<path d="M204.456,220.8c-0.208-0.232-0.352-0.488-0.576-0.712s-0.48-0.368-0.712-0.576c-37.469-37.454-98.206-37.441-135.66,0.028
			c-37.454,37.469-37.441,98.206,0.028,135.66c0.208,0.2,0.36,0.464,0.576,0.68s0.48,0.368,0.704,0.576
			c37.46,37.456,98.192,37.452,135.648-0.008C241.92,318.988,241.916,258.256,204.456,220.8z M68.112,321.944
			c-1.036,1.051-1.971,2.197-2.792,3.424C59.195,313.865,55.994,301.032,56,288c-0.05-44.134,35.688-79.952,79.822-80.002
			c13.09-0.015,25.983,3.186,37.546,9.322c-1.227,0.824-2.373,1.761-3.424,2.8L68.112,321.944z M79.648,344.712l-0.36-0.36
			c-2.942-3.136-2.878-8.037,0.144-11.096l101.824-101.824c3.063-3.03,7.976-3.09,11.112-0.136l0.328,0.336
			c2.957,3.134,2.9,8.047-0.128,11.112L90.744,344.568C87.685,347.59,82.784,347.654,79.648,344.712z M173.522,358.683
			c-23.421,12.422-51.478,12.421-74.898-0.003c1.231-0.821,2.38-1.759,3.432-2.8l101.832-101.824
			c1.036-1.051,1.971-2.197,2.792-3.424C227.361,289.626,212.516,338.002,173.522,358.683z"/>
	</g>
</g>
<g>
	<g>
		<circle cx="48" cy="424" r="16"/>
	</g>
</g>
<g>
	<g>
		<circle cx="104" cy="424" r="16"/>
	</g>
</g>
<g>
	<g>
		<circle cx="160" cy="424" r="16"/>
	</g>
</g>
<g>
	<g>
		<circle cx="216" cy="424" r="16"/>
	</g>
</g>
<g>
	<g>
		<rect x="40" y="184" width="24" height="16"/>
	</g>
</g>
<g>
	<g>
		<rect x="208" y="184" width="24" height="16"/>
	</g>
</g>
<g>
	<g>
		<path d="M464,136V96c0.001-0.859-0.137-1.713-0.408-2.528l-8-24c-1.089-3.268-4.147-5.473-7.592-5.472V0h-16v64
			c-3.445-0.001-6.503,2.204-7.592,5.472l-8,24c-0.271,0.815-0.409,1.669-0.408,2.528v40h-16v16h16v200c0,4.418,3.582,8,8,8h8v56
			c0,8.837-7.163,16-16,16H288v16h128c17.673,0,32-14.327,32-32v-56h8c4.418,0,8-3.582,8-8V152h16v-16H464z M448,344h-16V152h16V344
			z M448,136h-16V97.296L437.768,80h4.464L448,97.296V136z"/>
	</g>
</g>
<g>
	<g>
		<rect x="184" y="120" width="16" height="16"/>
	</g>
</g>
<g>
	<g>
		<rect x="152" y="120" width="16" height="16"/>
	</g>
</g>
<g>
	<g>
		<rect x="120" y="120" width="16" height="16"/>
	</g>
</g>
<g>
	<g>
		<path d="M368,136V96c0.001-0.859-0.137-1.713-0.408-2.528l-8-24c-1.089-3.268-4.147-5.473-7.592-5.472V0h-16v64
			c-3.445-0.001-6.503,2.204-7.592,5.472l-8,24c-0.271,0.815-0.409,1.669-0.408,2.528v40h-16v16h16v200c0,4.418,3.582,8,8,8h8v32
			c0,4.418-3.582,8-8,8h-40v16h40c13.255,0,24-10.745,24-24v-32h8c4.418,0,8-3.582,8-8V152h16v-16H368z M352,344h-16V152h16V344z
			 M352,136h-16V97.296L341.768,80h4.464L352,97.296V136z"/>
	</g>
</g>
<g>
	<g>
		<rect x="88" y="120" width="16" height="16"/>
	</g>
</g>
<g>
</g>
<g>
</g>
<g>
</g>
<g>
</g>
<g>
</g>
<g>
</g>
<g>
</g>
<g>
</g>
<g>
</g>
<g>
</g>
<g>
</g>
<g>
</g>
<g>
</g>
<g>
</g>
<g>
</g>
</svg>
