<svg height="480pt" viewBox="0 0 480 480" width="480pt" xmlns="http://www.w3.org/2000/svg"><path d="m456 0h-432c-13.253906 0-24 10.746094-24 24v80c0 4.417969 3.582031 8 8 8h8v288h-8c-4.417969 0-8 3.582031-8 8v48c0 13.253906 10.746094 24 24 24h432c13.253906 0 24-10.746094 24-24v-48c0-4.417969-3.582031-8-8-8h-8v-288h8c4.417969 0 8-3.582031 8-8v-80c0-13.253906-10.746094-24-24-24zm8 456c0 4.417969-3.582031 8-8 8h-432c-4.417969 0-8-3.582031-8-8v-40h448zm-16-56h-416v-288h416zm16-304h-448v-72c0-4.417969 3.582031-8 8-8h432c4.417969 0 8 3.582031 8 8zm0 0"/><path d="m72 384h336v-144h16v-48h-368v48h16zm320-16h-124.6875l66.34375-66.34375-11.3125-11.3125-77.65625 77.65625h-33.375l66.34375-66.34375-11.3125-11.3125-77.65625 77.65625h-33.375l66.34375-66.34375-11.3125-11.3125-77.65625 77.65625h-44.6875v-128h304zm-320-160h336v16h-336zm0 0"/><path d="m240 32c-13.253906 0-24 10.746094-24 24s10.746094 24 24 24 24-10.746094 24-24-10.746094-24-24-24zm0 32c-4.417969 0-8-3.582031-8-8s3.582031-8 8-8 8 3.582031 8 8-3.582031 8-8 8zm0 0"/><path d="m168 32c-13.253906 0-24 10.746094-24 24s10.746094 24 24 24 24-10.746094 24-24-10.746094-24-24-24zm0 32c-4.417969 0-8-3.582031-8-8s3.582031-8 8-8 8 3.582031 8 8-3.582031 8-8 8zm0 0"/><path d="m96 32c-13.253906 0-24 10.746094-24 24s10.746094 24 24 24 24-10.746094 24-24-10.746094-24-24-24zm0 32c-4.417969 0-8-3.582031-8-8s3.582031-8 8-8 8 3.582031 8 8-3.582031 8-8 8zm0 0"/><path d="m384 32c-13.253906 0-24 10.746094-24 24s10.746094 24 24 24 24-10.746094 24-24-10.746094-24-24-24zm0 32c-4.417969 0-8-3.582031-8-8s3.582031-8 8-8 8 3.582031 8 8-3.582031 8-8 8zm0 0"/><path d="m312 32c-13.253906 0-24 10.746094-24 24s10.746094 24 24 24 24-10.746094 24-24-10.746094-24-24-24zm0 32c-4.417969 0-8-3.582031-8-8s3.582031-8 8-8 8 3.582031 8 8-3.582031 8-8 8zm0 0"/><path d="m72 160h336v16h16v-48h-16v16h-336v-16h-16v48h16zm0 0"/></svg>