<?xml version="1.0" encoding="iso-8859-1"?>
<!-- Generator: Adobe Illustrator 19.0.0, SVG Export Plug-In . SVG Version: 6.00 Build 0)  -->
<svg version="1.1" id="Capa_1" xmlns="http://www.w3.org/2000/svg" xmlns:xlink="http://www.w3.org/1999/xlink" x="0px" y="0px"
	 viewBox="0 0 512 512" style="enable-background:new 0 0 512 512;" xml:space="preserve">
<g>
	<g>
		<path d="M504.485,264.016c4.151,0,7.515-3.365,7.515-7.515V7.515C512,3.365,508.636,0,504.485,0H7.515C3.364,0,0,3.365,0,7.515
			v496.971C0,508.635,3.364,512,7.515,512h496.971c4.151,0,7.515-3.365,7.515-7.515V293.072c0-4.15-3.364-7.515-7.515-7.515
			c-4.151,0-7.515,3.365-7.515,7.515v123.742H15.029V15.029h481.941v241.472C496.971,260.651,500.334,264.016,504.485,264.016z
			 M496.971,431.843v65.127H15.029v-65.127H496.971z"/>
	</g>
</g>
<g>
	<g>
		<path d="M215.922,112.219h-16.991c-3.44-29.085-26.566-52.211-55.651-55.651V39.577c0-4.15-3.364-7.515-7.515-7.515
			c-4.151,0-7.515,3.365-7.515,7.515v16.991c-29.085,3.44-52.211,26.566-55.651,55.651H55.609c-4.151,0-7.515,3.365-7.515,7.515
			c0,4.15,3.364,7.515,7.515,7.515H72.6c3.44,29.085,26.566,52.211,55.651,55.651v16.991c0,4.15,3.364,7.515,7.515,7.515
			c4.151,0,7.515-3.365,7.515-7.515v-16.991c29.085-3.44,52.211-26.566,55.651-55.651h16.991c4.151,0,7.515-3.365,7.515-7.515
			C223.436,115.584,220.073,112.219,215.922,112.219z M175.843,127.249h7.933c-3.241,20.79-19.707,37.256-40.497,40.497v-7.933
			c0-4.15-3.364-7.515-7.515-7.515c-4.151,0-7.515,3.365-7.515,7.515v7.933c-20.79-3.241-37.256-19.707-40.497-40.497h7.933
			c4.151,0,7.515-3.365,7.515-7.515c0-4.15-3.364-7.515-7.515-7.515h-7.933c3.241-20.79,19.707-37.256,40.497-40.497v7.933
			c0,4.15,3.364,7.515,7.515,7.515c4.151,0,7.515-3.365,7.515-7.515v-7.933c20.79,3.241,37.256,19.707,40.497,40.497h-7.933
			c-4.151,0-7.515,3.365-7.515,7.515C168.329,123.884,171.692,127.249,175.843,127.249z"/>
	</g>
</g>
<g>
	<g>
		<path d="M456.391,112.219H439.4c-3.44-29.085-26.566-52.211-55.651-55.651V39.577c0-4.15-3.364-7.515-7.515-7.515
			c-4.151,0-7.515,3.365-7.515,7.515v16.991c-29.085,3.44-52.211,26.566-55.651,55.651h-16.991c-4.151,0-7.515,3.365-7.515,7.515
			c0,4.15,3.364,7.515,7.515,7.515h16.991c3.44,29.085,26.566,52.211,55.651,55.651v16.991c0,4.15,3.364,7.515,7.515,7.515
			c4.151,0,7.515-3.365,7.515-7.515v-16.991c29.085-3.44,52.211-26.566,55.651-55.651h16.991c4.151,0,7.515-3.365,7.515-7.515
			C463.906,115.584,460.542,112.219,456.391,112.219z M416.313,127.249h7.933c-3.241,20.79-19.707,37.256-40.497,40.497v-7.933
			c0-4.15-3.364-7.515-7.515-7.515c-4.151,0-7.515,3.365-7.515,7.515v7.933c-20.79-3.241-37.256-19.707-40.497-40.497h7.933
			c4.151,0,7.515-3.365,7.515-7.515c0-4.15-3.364-7.515-7.515-7.515h-7.933c3.241-20.79,19.707-37.256,40.497-40.497v7.933
			c0,4.15,3.364,7.515,7.515,7.515c4.151,0,7.515-3.365,7.515-7.515v-7.933c20.79,3.241,37.256,19.707,40.497,40.497h-7.933
			c-4.151,0-7.515,3.365-7.515,7.515C408.798,123.884,412.162,127.249,416.313,127.249z"/>
	</g>
</g>
<g>
	<g>
		<path d="M456.391,304.595H439.4c-3.44-29.085-26.566-52.211-55.651-55.651v-16.991c0-4.15-3.364-7.515-7.515-7.515
			c-4.151,0-7.515,3.365-7.515,7.515v16.991c-29.085,3.44-52.211,26.566-55.651,55.651h-16.991c-4.151,0-7.515,3.365-7.515,7.515
			c0,4.15,3.364,7.515,7.515,7.515h16.991c3.44,29.085,26.566,52.211,55.651,55.651v16.991c0,4.15,3.364,7.515,7.515,7.515
			c4.151,0,7.515-3.365,7.515-7.515v-16.991c29.085-3.44,52.211-26.566,55.651-55.651h16.991c4.151,0,7.515-3.365,7.515-7.515
			C463.906,307.959,460.542,304.595,456.391,304.595z M416.313,319.624h7.933c-3.241,20.79-19.707,37.256-40.497,40.497v-7.933
			c0-4.15-3.364-7.515-7.515-7.515c-4.151,0-7.515,3.365-7.515,7.515v7.933c-20.79-3.241-37.256-19.707-40.497-40.497h7.933
			c4.151,0,7.515-3.365,7.515-7.515c0-4.15-3.364-7.515-7.515-7.515h-7.933c3.241-20.79,19.707-37.256,40.497-40.497v7.933
			c0,4.15,3.364,7.515,7.515,7.515c4.151,0,7.515-3.365,7.515-7.515v-7.933c20.79,3.241,37.256,19.707,40.497,40.497h-7.933
			c-4.151,0-7.515,3.365-7.515,7.515C408.798,316.26,412.162,319.624,416.313,319.624z"/>
	</g>
</g>
<g>
	<g>
		<path d="M215.922,304.595h-16.991c-3.44-29.085-26.566-52.211-55.651-55.651v-16.991c0-4.15-3.364-7.515-7.515-7.515
			c-4.151,0-7.515,3.365-7.515,7.515v16.991c-29.085,3.44-52.211,26.566-55.651,55.651H55.609c-4.151,0-7.515,3.365-7.515,7.515
			c0,4.15,3.364,7.515,7.515,7.515H72.6c3.44,29.085,26.566,52.211,55.651,55.651v16.991c0,4.15,3.364,7.515,7.515,7.515
			c4.151,0,7.515-3.365,7.515-7.515v-16.991c29.085-3.44,52.211-26.566,55.651-55.651h16.991c4.151,0,7.515-3.365,7.515-7.515
			C223.436,307.959,220.073,304.595,215.922,304.595z M175.843,319.624h7.933c-3.241,20.79-19.707,37.256-40.497,40.497v-7.933
			c0-4.15-3.364-7.515-7.515-7.515c-4.151,0-7.515,3.365-7.515,7.515v7.933c-20.79-3.241-37.256-19.707-40.497-40.497h7.933
			c4.151,0,7.515-3.365,7.515-7.515c0-4.15-3.364-7.515-7.515-7.515h-7.933c3.241-20.79,19.707-37.256,40.497-40.497v7.933
			c0,4.15,3.364,7.515,7.515,7.515c4.151,0,7.515-3.365,7.515-7.515v-7.933c20.79,3.241,37.256,19.707,40.497,40.497h-7.933
			c-4.151,0-7.515,3.365-7.515,7.515C168.329,316.26,171.692,319.624,175.843,319.624z"/>
	</g>
</g>
<g>
	<g>
		<path d="M296.078,448.877h-80.157c-4.151,0-7.515,3.365-7.515,7.515v24.047c0,4.15,3.364,7.515,7.515,7.515h80.157
			c4.151,0,7.515-3.365,7.515-7.515v-24.047C303.593,452.241,300.229,448.877,296.078,448.877z M288.564,472.924h-65.127v-9.018
			h65.127V472.924z"/>
	</g>
</g>
<g>
	<g>
		<path d="M344.172,440.861c-12.983,0-23.546,10.563-23.546,23.546s10.563,23.546,23.546,23.546
			c12.983,0,23.546-10.563,23.546-23.546S357.156,440.861,344.172,440.861z M344.172,472.924c-4.696,0-8.517-3.82-8.517-8.517
			s3.82-8.517,8.517-8.517c4.696,0,8.517,3.82,8.517,8.517S348.868,472.924,344.172,472.924z"/>
	</g>
</g>
<g>
	<g>
		<path d="M408.297,440.861c-12.983,0-23.546,10.563-23.546,23.546s10.563,23.546,23.546,23.546
			c12.983,0,23.546-10.563,23.546-23.546S421.281,440.861,408.297,440.861z M408.297,472.924c-4.696,0-8.517-3.82-8.517-8.517
			s3.82-8.517,8.517-8.517c4.696,0,8.517,3.82,8.517,8.517S412.994,472.924,408.297,472.924z"/>
	</g>
</g>
<g>
	<g>
		<path d="M103.703,440.861c-12.983,0-23.546,10.563-23.546,23.546s10.563,23.546,23.546,23.546
			c12.983,0,23.546-10.563,23.546-23.546S116.686,440.861,103.703,440.861z M103.703,472.924c-4.696,0-8.517-3.82-8.517-8.517
			s3.82-8.517,8.517-8.517s8.517,3.82,8.517,8.517S108.399,472.924,103.703,472.924z"/>
	</g>
</g>
<g>
	<g>
		<path d="M167.828,440.861c-12.983,0-23.546,10.563-23.546,23.546s10.563,23.546,23.546,23.546
			c12.983,0,23.546-10.563,23.546-23.546S180.811,440.861,167.828,440.861z M167.828,472.924c-4.696,0-8.517-3.82-8.517-8.517
			s3.82-8.517,8.517-8.517s8.517,3.82,8.517,8.517S172.524,472.924,167.828,472.924z"/>
	</g>
</g>
<g>
</g>
<g>
</g>
<g>
</g>
<g>
</g>
<g>
</g>
<g>
</g>
<g>
</g>
<g>
</g>
<g>
</g>
<g>
</g>
<g>
</g>
<g>
</g>
<g>
</g>
<g>
</g>
<g>
</g>
</svg>
