<?xml version="1.0" encoding="iso-8859-1"?>
<!-- Generator: Adobe Illustrator 19.0.0, SVG Export Plug-In . SVG Version: 6.00 Build 0)  -->
<svg version="1.1" id="Layer_1" xmlns="http://www.w3.org/2000/svg" xmlns:xlink="http://www.w3.org/1999/xlink" x="0px" y="0px"
	 viewBox="0 0 512 512" style="enable-background:new 0 0 512 512;" xml:space="preserve">
<g>
	<g>
		<path d="M0,0v512h512V0H0z M381.33,82.937c23.445,5.683,41.923,24.185,47.572,47.642H381.33V82.937z M381.33,160.997h47.531
			c-5.7,23.373-24.145,41.793-47.531,47.461V160.997z M381.33,303.361c23.445,5.682,41.923,24.184,47.572,47.641H381.33V303.361z
			 M381.33,381.42h47.531c-5.7,23.373-24.145,41.793-47.531,47.461V381.42z M160.907,82.937
			c23.446,5.683,41.923,24.184,47.572,47.641l-47.572,0.001V82.937z M160.907,160.996l47.531,0.001
			c-5.7,23.373-24.146,41.793-47.531,47.461V160.996z M160.907,303.361c23.446,5.682,41.923,24.184,47.572,47.641l-47.572,0.001
			V303.361z M160.907,381.419l47.531,0.001c-5.7,23.373-24.146,41.793-47.531,47.461V381.419z M130.49,481.582H30.417V381.419
			h21.516c6.534,40.184,38.36,71.985,78.556,78.481V481.582z M130.49,428.882c-23.385-5.668-41.83-24.089-47.531-47.462h47.531
			V428.882z M130.49,351.002H82.917c5.649-23.457,24.127-41.958,47.572-47.641V351.002z M130.49,272.34
			c-40.256,6.505-72.119,38.393-78.586,78.661H30.417V160.996h21.516c6.534,40.184,38.36,71.985,78.556,78.481V272.34z
			 M130.49,208.459c-23.385-5.668-41.83-24.089-47.531-47.462h47.531V208.459z M130.49,130.58H82.917
			c5.649-23.458,24.128-41.959,47.572-47.641V130.58z M130.49,51.918c-40.256,6.505-72.119,38.393-78.586,78.662H30.417V30.417
			H130.49V51.918z M350.913,481.582H160.907V459.9c40.196-6.495,72.023-38.297,78.556-78.481h32.893
			c6.534,40.184,38.36,71.985,78.556,78.481V481.582z M350.913,428.881c-23.385-5.668-41.83-24.089-47.531-47.461h47.531V428.881z
			 M350.913,351.003H303.34c5.649-23.458,24.128-41.959,47.572-47.641V351.003z M350.913,272.341
			c-40.256,6.505-72.119,38.393-78.586,78.662h-32.833c-6.468-40.269-38.33-72.157-78.587-78.662v-32.863
			c40.196-6.495,72.023-38.297,78.556-78.481h32.893c6.534,40.184,38.36,71.985,78.556,78.481V272.341z M350.913,208.458
			c-23.385-5.668-41.83-24.089-47.531-47.461h47.531V208.458z M350.913,130.581l-47.572-0.001
			c5.649-23.458,24.128-41.959,47.572-47.641V130.581z M350.913,51.918c-40.256,6.505-72.119,38.393-78.586,78.662h-32.833
			c-6.468-40.269-38.33-72.157-78.587-78.662V30.417h190.006V51.918z M481.583,481.583H381.33v-21.681
			c40.196-6.495,72.023-38.297,78.556-78.481h21.697V481.583z M481.583,351.003h-21.667c-6.468-40.269-38.33-72.157-78.586-78.662
			v-32.863c40.196-6.495,72.023-38.297,78.556-78.481h21.697V351.003z M481.583,130.58h-21.667
			c-6.468-40.269-38.33-72.157-78.586-78.662V30.417h100.253V130.58z"/>
	</g>
</g>
<g>
</g>
<g>
</g>
<g>
</g>
<g>
</g>
<g>
</g>
<g>
</g>
<g>
</g>
<g>
</g>
<g>
</g>
<g>
</g>
<g>
</g>
<g>
</g>
<g>
</g>
<g>
</g>
<g>
</g>
</svg>
