<?xml version="1.0" encoding="iso-8859-1"?>
<!-- Generator: Adobe Illustrator 19.1.0, SVG Export Plug-In . SVG Version: 6.00 Build 0)  -->
<svg version="1.1" id="Capa_1" xmlns="http://www.w3.org/2000/svg" xmlns:xlink="http://www.w3.org/1999/xlink" x="0px" y="0px"
	 viewBox="0 0 62.573 62.573" style="enable-background:new 0 0 62.573 62.573;" xml:space="preserve">
<g>
	<g>
		<g id="group-28svg">
			<path id="path-1_19_" d="M37.59,44.948H27.573c-0.828,0-1.5-0.671-1.5-1.5s0.672-1.5,1.5-1.5H37.59
				c3.12,0,4.983-1.866,4.983-4.992c0-2.337-1.347-4.399-3.43-5.262L10.982,19.991c-1.865-0.772-3.83-0.525-5.609,0.664
				C3.729,21.753,3,23.426,3,25.245v11.711c0,2.615,1.943,4.307,3.961,5.018c0.783,0.275,1.086,1.132,0.81,1.913
				c-0.275,0.781-0.974,1.191-1.752,0.916C2.265,43.481,0,40.401,0,36.956V25.245c0-2.838,1.215-5.42,3.706-7.084
				c2.616-1.748,5.739-2.098,8.532-0.941l28.108,11.703c3.208,1.329,5.254,4.479,5.254,8.024
				C45.6,41.736,42.365,44.948,37.59,44.948z"/>
			<path id="path-2_19_" d="M17.591,54.625c-6.341,0-11.5-5.158-11.5-11.5c0-6.341,5.159-11.5,11.5-11.5s11.5,5.159,11.5,11.5
				C29.091,49.467,23.932,54.625,17.591,54.625z M17.591,34.625c-4.687,0-8.5,3.813-8.5,8.5s3.813,8.5,8.5,8.5
				c4.686,0,8.5-3.813,8.5-8.5S22.277,34.625,17.591,34.625z M17.591,50.201c-3.903,0-7.077-3.174-7.077-7.076
				s3.174-7.076,7.077-7.076c3.901,0,7.076,3.174,7.076,7.076S21.492,50.201,17.591,50.201z M17.591,39.049
				c-2.248,0-4.077,1.828-4.077,4.076s1.829,4.076,4.077,4.076s4.076-1.828,4.076-4.076S19.839,39.049,17.591,39.049z"/>
			<path id="path-3_19_" d="M55.5,47.448c-0.828,0-1.5-0.671-1.5-1.5V13.125c0-0.799-0.168-2.131-1.278-2.176
				C51.459,10.991,50,12.147,50,13.125v22.373c0,2.779-2.307,4.875-5.085,4.875c-0.61,0-1.267-0.37-1.496-0.936
				c-0.23-0.566-0.147-1.214,0.292-1.639l0.162-0.185c0.42-0.409,1.218-0.521,1.737-0.341c0.741-0.239,1.39-0.883,1.39-1.774V13.125
				c0-2.809,2.677-5.012,5.285-5.168c0.055-0.006-0.104-0.009-0.049-0.009h0.13c0.057,0,0.327,0.003,0.382,0.009
				C55.176,8.111,57,10.149,57,13.125v32.823C57,46.777,56.328,47.448,55.5,47.448z"/>
			<path id="path-4_19_" d="M58.573,52.948h-8c-2.206,0-4-1.794-4-4s1.794-4,4-4h8c2.206,0,4,1.794,4,4S60.779,52.948,58.573,52.948
				z M50.573,47.948c-0.552,0-1,0.449-1,1s0.448,1,1,1h8c0.552,0,1-0.449,1-1s-0.448-1-1-1H50.573z"/>
			<path id="path-5_19_" d="M40.073,31.913c-0.25,0-0.501-0.062-0.727-0.188L26.782,24.76c-0.597-0.332-0.895-1.026-0.724-1.687
				c0.01-0.041,0.022-0.08,0.035-0.119c0.234-2.723,2.394-4.72,5.207-4.72c0.909,0,1.84,0.225,2.689,0.65
				c0.037,0.019,0.073,0.039,0.109,0.06l5.029,2.927C40.844,22.758,42,24.518,42,26.837v3.576c0,0.532-0.494,1.023-0.952,1.293
				C40.813,31.844,40.337,31.913,40.073,31.913z M29.404,22.665L39,27.866v-1.029c0-1.183-0.57-1.961-1.273-2.313
				c-0.038-0.018-0.181-0.038-0.216-0.06l-4.861-2.921c-0.425-0.205-0.781-0.309-1.216-0.309
				C30.566,21.234,29.725,21.687,29.404,22.665z"/>
		</g>
	</g>
	<g>
	</g>
	<g>
	</g>
	<g>
	</g>
	<g>
	</g>
	<g>
	</g>
	<g>
	</g>
	<g>
	</g>
	<g>
	</g>
	<g>
	</g>
	<g>
	</g>
	<g>
	</g>
	<g>
	</g>
	<g>
	</g>
	<g>
	</g>
	<g>
	</g>
</g>
<g>
</g>
<g>
</g>
<g>
</g>
<g>
</g>
<g>
</g>
<g>
</g>
<g>
</g>
<g>
</g>
<g>
</g>
<g>
</g>
<g>
</g>
<g>
</g>
<g>
</g>
<g>
</g>
<g>
</g>
</svg>
